<?xml version="1.0" encoding="UTF-8"?><svg id="Lag_1" xmlns="http://www.w3.org/2000/svg" width="47" height="30.49" viewBox="0 0 47 30.49"><defs><style>.cls-1{fill:none;stroke:#353535;stroke-miterlimit:10;}.cls-2{fill:#353535;}</style></defs><rect class="cls-1" x=".5" y=".5" width="46" height="29.49" rx="4.9" ry="4.9"/><path class="cls-2" d="M13.99,9.61c.36-.53.6-1.24.54-1.96-.53.03-1.17.41-1.54.94-.33.45-.63,1.19-.55,1.88.59.06,1.18-.35,1.56-.86"/><path class="cls-2" d="M14.53,10.6c-.86-.06-1.59.57-2,.57s-1.04-.54-1.72-.53c-.88.02-1.7.6-2.15,1.53-.92,1.86-.24,4.63.65,6.15.44.75.96,1.58,1.65,1.55.65-.03.91-.5,1.7-.5s1.03.5,1.72.48c.72-.02,1.17-.75,1.6-1.5.5-.86.7-1.68.72-1.73-.01-.02-1.38-.63-1.4-2.48-.01-1.55,1.08-2.28,1.13-2.33-.62-1.07-1.58-1.19-1.91-1.22"/><path class="cls-2" d="M22,8.51c1.87,0,3.17,1.51,3.17,3.7s-1.33,3.72-3.21,3.72h-2.07v3.85h-1.49v-11.27h3.61ZM19.89,14.46h1.71c1.3,0,2.04-.82,2.04-2.24s-.74-2.23-2.03-2.23h-1.72v4.48Z"/><path class="cls-2" d="M25.56,17.44c0-1.44.94-2.32,2.61-2.43l1.92-.13v-.63c0-.91-.53-1.46-1.41-1.46-.83,0-1.35.47-1.48,1.2h-1.36c.08-1.48,1.16-2.58,2.89-2.58s2.79,1.05,2.79,2.7v5.66h-1.38v-1.35h-.03c-.41.91-1.29,1.49-2.21,1.49-1.37,0-2.33-1-2.33-2.48ZM30.09,16.7v-.65l-1.73.12c-.86.07-1.35.52-1.35,1.22s.51,1.19,1.28,1.19c1.01,0,1.79-.81,1.79-1.88Z"/><path class="cls-2" d="M32.82,22.8v-1.37c.11.03.35.03.47.03.67,0,1.03-.33,1.25-1.17,0-.02.13-.5.13-.51l-2.53-8.23h1.56l1.77,6.69h.03l1.77-6.69h1.52l-2.63,8.65c-.6,1.99-1.29,2.63-2.75,2.63-.12,0-.48-.02-.59-.04Z"/></svg>