<?xml version="1.0" encoding="UTF-8"?><svg id="Lag_1" xmlns="http://www.w3.org/2000/svg" width="48" height="31.49" xmlns:xlink="http://www.w3.org/1999/xlink" viewBox="0 0 48 31.49"><defs><style>.cls-1,.cls-2{fill:none;}.cls-2{stroke:#353535;stroke-miterlimit:10;}.cls-3{fill:#1d1d1b;}.cls-4{fill:#353535;}.cls-5{clip-path:url(#clippath);}</style><clipPath id="clippath"><rect id="SVGID" class="cls-1" x="8.23" y="6.44" width="31.54" height="18.61"/></clipPath></defs><g class="cls-5"><path class="cls-1" d="M17.73,7.43c-5.13,0-9.31,3.73-9.31,8.31s4.18,8.31,9.31,8.31h12.54c5.13,0,9.31-3.73,9.31-8.31s-4.18-8.31-9.31-8.31h-12.54Z"/><path class="cls-1" d="M30.27,24.22h-12.54c-5.24,0-9.5-3.8-9.5-8.48s4.26-8.48,9.5-8.48h12.54c5.24,0,9.5,3.8,9.5,8.48s-4.26,8.48-9.5,8.48M17.73,7.43c-5.13,0-9.31,3.73-9.31,8.31s4.18,8.31,9.31,8.31h12.54c5.13,0,9.31-3.73,9.31-8.31s-4.18-8.31-9.31-8.31h-12.54Z"/><path class="cls-4" d="M32.46,15.24l4.17,4.43c.86-1.11,1.37-2.46,1.37-3.92,0-1.54-.57-2.96-1.52-4.1l-4.02,3.6Z"/><path class="cls-4" d="M20.65,11.27c3.11,0,5.46.71,5.7,3.05l3.28-3.05h6.53c-1.42-1.48-3.53-2.43-5.88-2.43h-12.54c-2.35,0-4.46.94-5.88,2.43h8.8Z"/><path class="cls-3" d="M15.52,14.22l-1.11,2.73h4.49c1.33,0,1.73-.49,2.02-1.43.29-.93-.44-1.3-1.35-1.3h-4.05Z"/><path class="cls-4" d="M29.65,20.04l-3.47-3.91c-.64,2.67-2.74,3.91-6.67,3.91h-7.84c1.42,1.59,3.6,2.61,6.05,2.61h12.54c2.45,0,4.63-1.02,6.05-2.61h-6.67Z"/></g><rect class="cls-2" x="1" y=".74" width="46" height="29.49" rx="4.9" ry="4.9"/></svg>