<?xml version="1.0" encoding="UTF-8"?><svg id="Lag_1" xmlns="http://www.w3.org/2000/svg" width="28" height="28" viewBox="0 0 28 28"><defs><style>.cls-1{fill:none;}.cls-2{fill:#353535;}</style></defs><g id="Logo"><path id="Initiator" class="cls-2" d="M28,14C28,6.27,21.73,0,14,0S0,6.27,0,14c0,6.57,4.52,12.07,10.62,13.59v-9.31h-2.89v-4.28h2.89v-1.84c0-4.77,2.16-6.97,6.83-6.97.89,0,2.42.17,3.04.35v3.88c-.33-.03-.9-.05-1.62-.05-2.3,0-3.18.87-3.18,3.13v1.51h4.57l-.79,4.28h-3.79v9.62c6.93-.84,12.3-6.74,12.3-13.9Z"/><path id="F" class="cls-1" d="M19.48,18.28l.79-4.28h-4.57v-1.51c0-2.26.89-3.13,3.18-3.13.71,0,1.29.02,1.62.05v-3.88c-.63-.17-2.16-.35-3.04-.35-4.68,0-6.83,2.21-6.83,6.97v1.84h-2.89v4.28h2.89v9.31c1.08.27,2.22.41,3.38.41.57,0,1.14-.04,1.7-.1v-9.62h3.79Z"/></g></svg>