<?xml version="1.0" encoding="UTF-8"?>
<svg id="Layer_2" data-name="Layer 2" xmlns="http://www.w3.org/2000/svg" viewBox="0 0 854.85 796.38">
  <defs>
    <style>
      .cls-1 {
        fill: #f7c1d9;
      }

      .cls-2 {
        font-family: HelveticaNeue-BoldItalic, 'Helvetica Neue';
        font-size: 130px;
        font-style: italic;
        font-weight: 700;
      }

      .cls-2, .cls-3 {
        fill: #fff;
      }

      .cls-4 {
        letter-spacing: -.02em;
      }
    </style>
  </defs>
  <g>
    <polygon class="cls-1" points="771.67 272.94 787.88 311.9 779.41 315.42 767.03 285.69 741.72 296.22 752.52 322.18 744.05 325.71 733.25 299.75 705.4 311.34 717.98 341.58 709.51 345.11 693.09 305.64 771.67 272.94"/>
    <path class="cls-1" d="M748.53,228.7c3.95,6.83,4.87,13.35,2.74,19.57-2.12,6.22-7.08,11.81-14.89,16.76l-5.2-8.98c5.83-3.9,9.45-7.61,10.85-11.15,1.41-3.53.9-7.39-1.51-11.57-2.8-4.82-6.93-7.38-12.39-7.68-5.46-.29-12.02,1.77-19.67,6.21l-13.63,7.88c-7.52,4.35-12.59,8.9-15.21,13.63-2.62,4.74-2.58,9.42.1,14.05,2.67,4.63,5.81,7.27,9.41,7.91s8.66-.61,15.21-3.75l5.2,8.99c-8.19,4.22-15.52,5.62-22,4.2-6.47-1.41-11.75-5.65-15.84-12.71-4.1-7.09-4.53-14.36-1.28-21.82,3.25-7.45,9.72-13.99,19.41-19.6l13.48-7.8c9.66-5.59,18.54-7.87,26.64-6.83,8.09,1.04,14.29,5.27,18.58,12.69Z"/>
    <rect class="cls-1" x="634.63" y="200.61" width="89.22" height="11.61" transform="translate(21.57 473.72) rotate(-39.02)"/>
    <path class="cls-1" d="M685.87,153.41l-41.98,46.93c-5.66,6.2-11.81,9.51-18.46,9.94-6.64.42-13.08-2.15-19.3-7.72-6.37-5.7-9.69-11.79-9.96-18.26-.26-6.47,2.44-12.93,8.12-19.39l41.98-46.93,8.06,7.2-41.68,46.58c-3.97,4.44-6.01,8.58-6.13,12.42-.11,3.84,1.88,7.59,5.98,11.26,4.13,3.69,8.09,5.27,11.9,4.73,3.8-.54,7.69-3.03,11.66-7.47l41.67-46.58,8.14,7.29Z"/>
    <path class="cls-1" d="M623.72,98.85l-32.01,57.08c-4.33,7.71-9.45,12.77-15.37,15.18-5.93,2.4-11.83,1.95-17.72-1.35-6.05-3.39-9.6-8.1-10.65-14.12s.48-12.69,4.58-20l8.97,5.04c-2.59,4.61-3.71,8.71-3.36,12.3.35,3.6,2.13,6.29,5.34,8.09,3.1,1.74,6.37,1.73,9.81-.03s6.57-5.17,9.41-10.23l31.97-57.02,9.03,5.06Z"/>
    <path class="cls-3" d="M603.53,563.58c2.98,1.88,4.31,5.69,4.06,9.21-.24,3.52-1.81,6.8-3.53,9.87-4.17,7.4-9.45,14.17-15.62,20-1.4,1.32-3.16,2.68-5.03,2.26-1.35-.3-2.35-1.5-2.76-2.82-.42-1.32-.34-2.73-.17-4.1.56-4.72,2.04-9.33,4.33-13.49-3.72,3.54-7.44,7.08-11.16,10.63-1.11,1.05-2.28,2.14-3.75,2.58-3.11.94-6.46-1.6-7.42-4.71-.81-2.64-.3-5.53.79-8.06-2.98,2.26-6.08,4.58-9.73,5.37-3.65.78-8.02-.44-9.7-3.78-1.46-2.9-.51-6.43.94-9.33,1.46-2.9,3.43-5.62,4.1-8.79.43-2.01.18-4.5-1.07-6.19-1.82-2.47-3.44-.44-5.17,1.09-4.21,3.72-8.42,7.44-12.63,11.16-.92.82-1.87,1.64-3.01,2.09-1.14.44-2.54.44-3.49-.33-1.01-.83-1.27-2.31-.97-3.58s1.06-2.37,1.8-3.44c4.69-6.77,9.38-13.54,14.07-20.31,1.54-2.23,3.24-4.58,5.78-5.51,3.39-1.24,5,.43,8.02,1.33,3.95,1.18,7.17.53,11-.35,2.83-.64,7.06,0,9.39,1.84,2.07,1.64,3.04,4.47,5.34,5.75,3.02,1.68,7.09.02,10.1,1.72,2.34,1.33,3.26,4.28,5.34,6,2.81,2.33,7.06,1.94,10.15,3.89Z"/>
    <path class="cls-3" d="M604.03,462.92c1.15,1.85,2.33,3.87,2.17,6.04-.34,4.71-5.79,5.42-9.28,6.9-4.93,2.09-10,3.84-15.16,5.25-5.17,1.42-10.43,2.48-15.73,3.2-2.76.37-5.53.64-8.31.82-1.95.12-5.29-.47-7.07.23,9.93-3.9,19.85-7.8,29.77-11.7,2.59-1.02,5.2-1.99,7.77-3.05,2.74-1.14,2.86-1.13,2.09-4.03-1.11-4.15-3.54-8.11-6.16-11.46-4.29-5.49-9.74-9.94-15.14-14.34-2.23-1.81-4.56-3.67-7.37-4.28-4.54-.99-7.05,2.91-10.37,5.03-5.19,3.32-11.62,5.49-17.2,8.12,5.85-7.05,11.83-14.32,14.63-23.04,2.81-8.72,1.72-19.34-5.06-25.49-4.64-4.21-11.05-5.69-17.16-7.03-15.91-3.48-31.81-6.96-47.72-10.44-4.34-.95-8.8-1.91-13.2-1.31-6.02.81-11.24,4.38-16.48,7.46-14.38,8.46-30.62,13.76-47.23,15.42-1.58.15-3.62.01-4.15-1.5-1.24-3.54,5.63-2.89,7.37-2.75.84.07,1.66.1,2.47.09,3.74-.01,7.32-.71,11.06-1.76,10.27-2.9,19.67-8.85,26.69-16.89,2.53-2.89,4.75-6.05,6.58-9.43,28.68-4.68,58.35-1.87,85.57,8.33,16.62,6.23,24.84,18.76,34.62,32.84,11.11,15.96,21.78,32.23,32,48.77Z"/>
    <polygon class="cls-1" points="525.78 64 523.98 72.89 490.04 66.01 484.65 92.57 514.28 98.58 512.47 107.48 482.85 101.47 476.92 130.69 511.43 137.69 509.63 146.59 464.59 137.45 481.32 54.98 525.78 64"/>
    <path class="cls-3" d="M521.4,599.03c.32.24.96.72.69,1.18-.25.45-1.67.51-2.15.61-1.74.39-3.48.73-5.24.97-3.57.51-7.2.63-10.76.04-1.31-.21-2.64-.52-3.77-1.22s-2.04-1.86-2.15-3.19c-.1-1.32.6-2.6,1.57-3.5s2.18-1.49,3.37-2.06c3.14-1.52,6.02-3.28,9.07-4.98.64-.35,1.46-.7,2.05-.27.48.34.54,1.02.59,1.61.08,1.01.62,1.05,1.03,1.75.47.8.58,1.83.88,2.71.5,1.6,2.02,2.9,2.89,4.31.12.19.25.37.37.54.45.58.99,1.06,1.56,1.5Z"/>
    <path class="cls-3" d="M493.4,452.41v.31c-.01.09-.01.17,0,.23l-.1,3.8-1.73.33.08-3.8c0-.1-.01-.23-.01-.4s-.01-.29-.03-.38c-.03-.19-.15-.32-.34-.41-.2-.09-.4-.11-.61-.07-.26.04-.48.14-.66.28-.18.13-.33.3-.44.49-.11.18-.19.39-.25.62-.05.22-.08.45-.09.68l-.08,3.45-1.73.32.13-6.48,1.67-.31-.04.9h.03c.43-.8,1.1-1.29,2.01-1.46,1.23-.23,1.95.21,2.17,1.33.01.06.02.15.02.25v.32Z"/>
    <path class="cls-3" d="M486.48,455.24l-4.66.88s0,.08.01.11c0,.04.01.07.02.1l.03.16c.06.36.23.63.5.81s.65.23,1.12.14c.17-.03.32-.09.44-.16.13-.08.23-.17.32-.27s.16-.21.22-.33c.05-.12.11-.23.15-.34l1.74-.33c-.07.38-.18.72-.32,1.02-.13.3-.31.57-.54.8s-.51.42-.84.58c-.32.15-.72.27-1.17.36-.43.08-.82.09-1.19.05-.37-.05-.7-.17-.98-.35-.29-.18-.53-.43-.73-.74s-.34-.7-.43-1.15c-.09-.5-.1-.99-.03-1.48.08-.5.23-.95.46-1.37.23-.41.54-.76.93-1.06.4-.29.86-.49,1.4-.59.44-.09.85-.11,1.23-.06.39.04.73.16,1.03.34s.55.42.76.74c.21.31.35.7.44,1.15.06.3.09.63.09.99ZM481.8,455l2.89-.55c-.03-.16-.07-.31-.13-.46-.06-.16-.14-.29-.24-.4-.11-.11-.25-.19-.42-.24s-.38-.05-.63,0c-.24.05-.45.12-.63.23-.17.11-.32.24-.43.38-.12.15-.21.31-.27.49s-.11.36-.14.55Z"/>
    <path class="cls-3" d="M481.24,597.33c1.22,3.24-2.95,5.54-5.34,6.76-4.79,2.43-9.89,4.23-15.13,5.35-4.69,1-9.75.33-14.53.29-.57-.01-1.12.06-1.66.17l-.39-1.42c1.81-.48,3.62-1.15,5.48-2.12,1.75-.92,3.61-1.97,5.1-3.28,1.17-1.03,1.91-2.77,2-4.35.02-.23.02-.45.01-.68,0,.03,22.45-.91,24.46-.72Z"/>
    <path class="cls-3" d="M479.46,456.57l-4.65.88s0,.08,0,.11c.01.03.02.06.02.09l.03.16c.07.36.24.64.51.82s.64.23,1.11.14c.18-.04.32-.09.45-.17.12-.08.23-.16.32-.26.08-.1.15-.21.21-.33s.11-.24.16-.34l1.73-.33c-.07.38-.17.72-.31,1.02s-.32.57-.55.8c-.22.23-.5.42-.83.57-.33.16-.72.28-1.18.36-.42.08-.82.1-1.18.05-.37-.05-.7-.16-.99-.34-.29-.19-.53-.43-.73-.75-.19-.31-.34-.69-.42-1.14-.1-.5-.11-1-.03-1.49s.23-.95.46-1.36.54-.77.93-1.06c.39-.3.86-.5,1.39-.6.44-.08.86-.1,1.24-.06.38.05.73.16,1.03.34s.55.43.76.74c.2.32.35.7.43,1.15.06.31.09.64.09,1ZM474.78,456.33l2.9-.55c-.03-.16-.07-.32-.13-.47s-.14-.28-.25-.4c-.1-.11-.24-.19-.41-.24-.17-.04-.38-.04-.63,0-.25.05-.46.13-.63.24-.18.1-.32.23-.44.38-.11.14-.2.31-.26.49-.07.17-.11.36-.15.55Z"/>
    <path class="cls-3" d="M473.09,453.97l-.04,1.74c-.13-.01-.26-.01-.38-.01-.13,0-.26.01-.38.04-.33.06-.6.17-.82.32-.21.16-.37.35-.5.57-.12.23-.2.47-.25.73-.05.27-.07.54-.08.81l-.07,2.88-1.72.32.13-6.48,1.65-.31-.04,1.17.02.02c.12-.48.35-.86.7-1.16.36-.29.77-.48,1.23-.57.18-.03.36-.06.55-.07Z"/>
    <path class="cls-3" d="M467.6,461.61l-1.73.32-.12-.61c-.18.31-.44.56-.75.75-.32.19-.67.32-1.03.39-.34.06-.65.07-.93.03-.27-.04-.5-.12-.7-.23-.2-.12-.36-.27-.48-.45s-.2-.38-.24-.6c-.11-.6,0-1.12.36-1.56.35-.45.9-.78,1.65-1.02.39-.12.74-.22,1.04-.3.3-.09.54-.17.73-.26s.32-.2.4-.31c.08-.12.1-.28.06-.48-.03-.17-.09-.29-.18-.37s-.2-.14-.32-.18c-.12-.03-.24-.05-.37-.05-.13.01-.26.02-.37.04-.31.06-.57.19-.79.38-.22.2-.32.46-.32.78l-1.63.31c-.01-.41.05-.76.18-1.05.14-.3.33-.55.57-.77.24-.21.52-.38.84-.51s.66-.23,1.02-.3c.28-.05.58-.09.9-.11s.62.01.9.08c.28.06.53.19.74.37.2.18.34.45.4.8.05.3.07.66.06,1.08l-.09,2.62c-.01.11-.01.26.01.42.02.17.04.32.07.44.02.1.06.22.12.35ZM465.75,459.48l.06-.63c-.2.17-.42.29-.67.37-.25.07-.49.14-.74.21-.16.04-.32.1-.47.16-.14.07-.27.15-.37.25-.11.09-.19.21-.24.34-.05.14-.05.31-.02.5.05.24.18.39.39.47s.45.1.7.05c.27-.05.49-.13.65-.25.17-.12.31-.26.41-.42.1-.15.17-.32.21-.51.04-.18.07-.36.09-.54Z"/>
    <path class="cls-3" d="M460.74,459.02c.09.48.11.97.06,1.47-.05.49-.18.95-.39,1.37-.2.42-.49.78-.86,1.08-.36.3-.81.5-1.35.61-.44.08-.86.07-1.25-.02s-.71-.34-.94-.74h-.03l-.02,1.02-1.59.3.19-8.96,1.74-.33-.07,3.16h.02c.21-.34.45-.6.71-.79.25-.19.59-.32,1-.4.41-.07.77-.07,1.08.02s.58.23.81.44.42.46.56.77c.15.3.26.64.33,1ZM459.06,460.25c.02-.32,0-.61-.05-.88-.08-.39-.23-.71-.47-.94s-.58-.3-1.03-.21c-.34.06-.61.2-.82.43-.2.22-.35.47-.45.77-.1.29-.16.6-.17.93s.01.63.06.9c.08.39.25.68.51.88.27.21.6.27,1,.2.34-.07.6-.2.8-.42.2-.21.35-.46.45-.75.11-.29.16-.6.17-.91Z"/>
    <path class="cls-3" d="M458.7,302.47c.5,8.6,1.04,17.57-.32,26.11-1.51,9.53-4.94,20.17-11.9,27.17-1.4,1.41-3.14,2.59-4.85,3.58-.3.18-.62.35-.96.4-.35.04-.74-.07-.93-.37s-.13-.7.06-1c.18-.3.47-.52.74-.74,4.63-3.71,8.46-9.97,9.75-15.81.54-2.42,1.1-4.5,1.28-7,.19-2.74.32-5.49.4-8.24.17-5.5.11-11-.15-16.49-.44-8.95-3.08-17.96-5.78-26.46-.78-2.46-1.66-4.94-2.88-7.2,3.43-.21,6.89.27,10.13,1.39.71.25,1.43.53,2.06.95,1.23.8,1.26,2.58,1.47,3.94.29,1.85.55,3.71.85,5.56.28,1.67.28,3.33.56,5.01.49,3,.3,6.14.47,9.2Z"/>
    <polygon class="cls-1" points="454.37 51.18 454.37 138.58 443.5 138.58 443.5 98.18 408.89 98.18 408.89 138.58 398.08 138.58 398.08 51.18 408.89 51.18 408.89 88.75 443.5 88.75 443.5 51.18 454.37 51.18"/>
    <path class="cls-3" d="M452.51,542.79c1.94,2.58,1.66,6.14,1.29,9.35-.09.79-6.68,2.42-7.55,2.67-2.75.8-5.55,1.44-8.37,1.91-5.46.91-10.91.7-16.36,1.32.12.94.25,1.87.37,2.81l-3.78,38.04c-10.88,1-22.36,1.91-32.24-2.74-8.7-4.09-15.09-12.14-18.75-21.02-2.56-6.22-3.9-12.87-4.6-19.53-.28-2.74-1.19-6.57-.18-9.15.95-2.43,3.18-3.82,5.48-4.83,5.69-2.5,11.86-3.59,17.97-4.52,9.78-1.48,19.6-.68,29.42-1.01,9.9-.34,19.85.62,29.49,2.86.2.04.39.09.58.13,2.69.64,5.56,1.51,7.23,3.71ZM447.95,548.16c.95-.55,1.74-1.54,1.73-2.65,0-1.13-.82-2.12-1.81-2.66s-2.13-.71-3.24-.86c-5.4-.73-10.83-1.26-16.27-1.58-9.81-.59-19.6-.34-29.39-.05-9.73.3-19.43,1.76-28.81,4.37-.91.26-1.84.53-2.62,1.06-1.29.88-2.06,2.84-.89,4.17.99,1.11,3.34.94,4.67,1.1,4.59.52,9.19.93,13.79,1.21,19.93,1.23,39.99.17,59.67-3.17,1.09-.18,2.21-.38,3.17-.94Z"/>
    <path class="cls-3" d="M449.83,227.71c1.34,4.54,2.58,8.66-.16,12.74-2.4,3.57-5.75,6.49-9.65,8.33-3.92,1.86-8.97,3.28-10.08,7.47,1.54-9.58-.13-19.36-2.05-28.87-1.3-6.42-2.74-12.9-5.79-18.7-4.67-8.86-12.94-13.58-22.57-15.51-3.37-.68-6.34-.31-9.69-1.25-.89-.25-1.8-.5-2.56-.99-.28-.18-.54-.4-.76-.65-.35-.4-.57-.89-.56-1.39.01-.41.2-.83.58-1.07.41-.26.95-.26,1.46-.25,8.66.13,16.98,1.3,25.12,4.1,8.18,2.81,14.74,7.08,21.22,12.13,7.2,6.36,12.76,14.66,15.49,23.91Z"/>
    <path class="cls-3" d="M444.19,608.48l.39,1.42c-2.24.48-4.28,1.87-6.21,3.03-3.18,1.9-6.3,3.13-9.97,3.53-4.38.49-8.77.8-13.18.91-8.79.22-17.63-.38-26.25-2.18-2.75-.58-6.1-1.03-8.59-2.42-.66-.36-1.27-.86-1.72-1.48-.33-.46-.44-1.14-.92-1.41-.18-.09-.41-.16-.68-.2l.29-1.6c12.3,2.27,24.83,3.34,37.33,3.18,6.44-.08,12.87-.48,19.27-1.21,3.64-.41,6.95-.69,10.24-1.57Z"/>
    <path class="cls-3" d="M428.24,276.12c.07,1.42.42,3.62-1.13,4.37-.78.38-1.7.32-2.55.15-2.81-.56-4.33-2.37-6.61-3.83-2.08-1.34-4.38-2.31-6.73-3.06-4.73-1.51-9.69-2.15-14.62-2.6-9.38-.88-18.89.2-27.79,3.31-6.51,2.27-12.75,6.04-16.76,11.77-1.99,2.85-3.45,5.99-4.83,9.17-1.2,2.8-2.34,5.63-3.7,8.34-1.91,3.78-3.82,3.25-3.45-.8,1.42-15.78,13.88-29.24,27.86-35.5,6.36-2.84,14.54-3.92,21.5-4.06,7.95-.17,15.94,1.28,23.29,4.33,2.46,1.02,6.8,4.09,8.57,1.08.85-1.46,1.14-3.64,1.53-5.27.33-1.39,1.56-4.59,1.11-5.95,1.34,4.04,2.66,8.1,3.49,12.28.41,2.07.71,4.16.82,6.27Z"/>
    <path class="cls-3" d="M397.44,222.74c2.98,1.32,4.31,3.39,3.49,5.77-.51,1.47-2.08,3.09-3.69,4.1-1.94,1.21-4.01,1.6-6.31,2.31,3.09-.96,5.64-2.47,7.23-4.54.87-1.13,1.12-2.49.71-3.74-.57-1.78-2.38-3.32-4.67-4.22-1.26-.49-2.46-.72-3.71-.81-.91-.07-1.85-.06-2.86-.03-2.67.07-5.34.15-8.01.23,1.44-.04,2.9-.44,4.34-.6,4.48-.5,9.56-.19,13.48,1.53Z"/>
    <polygon class="cls-1" points="381.6 51.18 383.38 60.34 359.51 64.97 374.22 140.82 362.81 143.03 348.11 67.18 324.3 71.8 322.53 62.63 381.6 51.18"/>
    <path class="cls-3" d="M377.35,608.08l-.29,1.6c-1.26-.18-3.34.15-4.29.09-3.47-.21-6.92-.7-10.32-1.44-6.7-1.47-13.2-3.9-19.22-7.19-2.35-1.29-4.97-3.52-4.21-6.09.52-1.75,2.39-2.67,4.09-3.33,8.5-3.31,17.43-5.48,26.5-6.43,1.04,1.85,2.09,3.7,3.13,5.55-2.9.11-5.66,1.96-6.86,4.61-1.19,2.64-.75,5.94,1.09,8.18,2.21,2.69,5.88,3.6,9.3,4.25.36.07.72.14,1.08.2Z"/>
    <path class="cls-3" d="M367.99,343.99c1.61,1.25,4.06,2.02,4.01,4.37-.04,1.88-1.71,3.48-2.64,4.98-1.83,2.96-.32,3.21,1.5,5.21,1.28,1.41,1.48,3.7.83,5.42-1.06,2.78-3.59,4.71-6.16,6.21-9.14,5.36-19.76,7.1-29.98,9.22-5.09,1.05-10.17,2.18-15.08,3.9-4.54,1.6-8.76,4.84-13.34,6.06-2.41.64-4.78-.14-7.11.31-1.63.32-2.89,1.52-4.09,2.62-3.33,3.1-5.34,7.21-7.62,11.07-3.12,5.3-6.49,10.22-11.58,13.86,1.13-.81-2.77-10.83-4.17-11.41-3.6-1.46-9.83,3.8-11.91,6.14-3.37,3.79-5.46,8.52-7.5,13.16-8.01,18.27-16.03,36.55-24.05,54.82-3.92,8.92-7.83,17.85-11.75,26.77-1.96,4.47-7.16,22.74-12.07,22.93,1.13-14.28,6.77-29.51,11.37-43.02,4.63-13.58,9.43-29.81,17.43-41.82,7.86-15.8,16.98-30.94,26.39-45.86,3.43-5.43,6.03-11.76,10.18-16.62,4.57-5.35,9.39-10.49,14.43-15.4,10.07-9.81,21.04-18.72,32.71-26.57,5.72-3.84,11.61-7.43,17.64-10.74,5.96-3.28,10.53-7.62,17.48-9.11,3.08-.67,6.6.84,7.56,4.01.33,1.11.45,2.32,1.13,3.26.62.87,1.64,1.37,2.63,1.78,1,.42,2.04.79,2.83,1.52,1.21,1.09,1.31,3.23.98,4.74-.67,3.02-3.3,5.65-.05,8.19Z"/>
    <path class="cls-3" d="M353.71,402.12c.39,3.66-2.24,7.06-5.38,8.98-3.15,1.92-6.81,2.76-10.23,4.13-7.75,3.1-14.31,9.05-18.15,16.46-5.74,11.08-5.36,24.73-11.91,35.36.86-7.18,2.05-14.41,2.55-21.62-7.14,7.79-13.82,16.2-20.7,24.27-1.23,1.44-3.19,3.02-4.79,2-.61-.39,12.07-22.75,13.4-25.17,3.93-7.12,8.82-13.71,14.46-19.58,11.14-11.59,25.26-20.39,40.75-24.83Z"/>
    <path class="cls-1" d="M309.55,158.75l-11.75,6.57-7.41-3.64c-.89,3.36-2.48,6.5-4.77,9.43s-5.04,5.29-8.25,7.09c-6.76,3.78-13.33,4.69-19.71,2.73s-11.46-6.32-15.24-13.08c-2.13-3.8-3.18-7.83-3.16-12.09.02-4.25,1.42-9.96,4.2-17.14-5.41-2.55-9.44-4.89-12.11-7.02-2.66-2.12-4.75-4.53-6.26-7.22-3.45-6.17-4.56-11.86-3.33-17.08s4.5-9.32,9.82-12.29c4.88-2.73,9.79-3.34,14.75-1.85s8.8,4.68,11.52,9.55c1.78,3.18,2.79,6.47,3.04,9.87.26,3.4-.43,7.37-2.06,11.91l-2.98,8.07,25.62,12.51c-.73-5.36-2.63-10.8-5.7-16.3l8.75-4.89c5.21,9.3,7.62,18.04,7.24,26.2l17.79,8.67ZM281.2,157.08l-29.06-14.37-.89,2.31c-2.09,6.75-1.78,12.54.92,17.38,2.4,4.28,5.45,7.14,9.15,8.56s7.49,1.04,11.37-1.13c4.32-2.41,7.16-6.66,8.51-12.75ZM249.44,122.4c1.24-3.07,1.8-5.67,1.67-7.81-.12-2.13-.87-4.42-2.23-6.86-1.37-2.43-3.25-4.07-5.66-4.91-2.4-.83-4.73-.62-6.99.64-2.4,1.34-3.69,3.42-3.89,6.25-.19,2.82.58,5.78,2.32,8.88,1.11,2,2.76,3.77,4.93,5.32,2.18,1.54,4.72,3.06,7.63,4.53l2.22-6.04Z"/>
    <polygon class="cls-1" points="222.67 211.78 193.98 245.18 128.44 188.88 156.77 155.91 163.83 161.98 142.22 187.14 163.33 205.28 182.2 183.31 189.26 189.39 170.39 211.35 193.62 231.3 215.61 205.71 222.67 211.78"/>
    <path class="cls-1" d="M176,255.83c3.77,7.41,3.6,14.98-.53,22.72-3.96,7.44-10.02,11.77-18.16,12.97-8.15,1.21-17.61-.95-28.37-6.48l-15.36-8.18c-10.9-5.81-18.31-12.49-22.22-20.05-3.9-7.56-3.82-15.16.25-22.81,4.05-7.6,10.17-11.96,18.36-13.06,8.18-1.09,17.79,1.23,28.82,6.98l14.85,7.91c11.13,5.93,18.58,12.6,22.36,20ZM166.34,273.69c2.72-5.1,2.71-9.94-.02-14.54s-8.23-9.17-16.51-13.7l-15.3-8.15c-8.62-4.59-15.7-6.76-21.23-6.5-5.54.26-9.68,2.97-12.43,8.13-2.66,4.99-2.54,9.91.35,14.74,2.89,4.83,8.47,9.47,16.75,13.92l14.62,7.79c8.33,4.44,15.36,6.54,21.1,6.3,5.73-.23,9.96-2.9,12.67-7.99Z"/>
    <path class="cls-1" d="M146.18,315.39c2.71,5.79,2.57,11.71-.42,17.76-3.07,6.22-7.58,10.01-13.54,11.37s-12.7.19-20.21-3.52l4.56-9.23c4.74,2.34,8.9,3.25,12.46,2.71,3.57-.54,6.17-2.45,7.8-5.74,1.58-3.2,1.4-6.46-.54-9.8s-5.51-6.3-10.71-8.87l-58.61-28.95,4.58-9.28,58.67,28.99c7.93,3.91,13.25,8.77,15.96,14.56Z"/>
  </g>
  <text class="cls-2" transform="translate(196.39 731.93)"><tspan x="0" y="0">ba</tspan><tspan class="cls-4" x="154.05" y="0">r</tspan><tspan x="202.28" y="0">een</tspan></text>
</svg>