<?xml version="1.0" encoding="UTF-8"?>
<svg id="Layer_2" data-name="Layer 2" xmlns="http://www.w3.org/2000/svg" viewBox="0 0 186.76 155.26">
  <defs>
    <style>
      .cls-1 {
        fill: #f7c1d9;
      }

      .cls-2, .cls-3 {
        fill: #fff;
      }

      .cls-4 {
        letter-spacing: -.02em;
      }

      .cls-3 {
        font-family: HelveticaNeue-BoldItalic, 'Helvetica Neue';
        font-size: 28.77px;
        font-style: italic;
        font-weight: 700;
      }
    </style>
  </defs>
  <g>
    <polygon class="cls-1" points="169.56 50.77 173.14 59.39 171.27 60.17 168.53 53.59 162.93 55.92 165.32 61.67 163.45 62.45 161.06 56.7 154.89 59.27 157.68 65.96 155.8 66.74 152.17 58.01 169.56 50.77"/>
    <path class="cls-1" d="M164.44,40.98c.87,1.51,1.08,2.95.61,4.33-.47,1.38-1.57,2.61-3.3,3.71l-1.15-1.99c1.29-.86,2.09-1.68,2.4-2.47.31-.78.2-1.64-.34-2.56-.62-1.07-1.53-1.63-2.74-1.7-1.21-.07-2.66.39-4.35,1.37l-3.02,1.74c-1.66.96-2.79,1.97-3.36,3.02-.58,1.05-.57,2.08.02,3.11s1.29,1.61,2.08,1.75,1.92-.13,3.37-.83l1.15,1.99c-1.81.93-3.43,1.24-4.87.93-1.43-.31-2.6-1.25-3.51-2.81-.91-1.57-1-3.18-.28-4.83.72-1.65,2.15-3.1,4.3-4.34l2.98-1.73c2.14-1.24,4.1-1.74,5.9-1.51,1.79.23,3.16,1.16,4.11,2.81Z"/>
    <rect class="cls-1" x="139.23" y="34.77" width="19.74" height="2.57" transform="translate(10.61 102.02) rotate(-39.06)"/>
    <path class="cls-1" d="M150.57,24.32l-9.29,10.38c-1.25,1.37-2.61,2.11-4.08,2.2-1.47.09-2.89-.48-4.27-1.71-1.41-1.26-2.14-2.61-2.2-4.04-.06-1.43.54-2.86,1.79-4.29l9.29-10.38,1.78,1.59-9.22,10.31c-.88.98-1.33,1.9-1.36,2.75-.02.85.42,1.68,1.32,2.49.91.82,1.79,1.17,2.63,1.05s1.7-.67,2.58-1.65l9.22-10.31,1.8,1.61Z"/>
    <path class="cls-1" d="M136.82,12.25l-7.08,12.63c-.96,1.71-2.09,2.83-3.4,3.36-1.31.53-2.62.43-3.92-.3-1.34-.75-2.12-1.79-2.35-3.12-.23-1.33.1-2.81,1.01-4.42l1.98,1.11c-.57,1.02-.82,1.93-.74,2.72s.47,1.39,1.18,1.79c.69.39,1.41.38,2.17,0s1.45-1.14,2.08-2.26l7.08-12.62,2,1.12Z"/>
    <path class="cls-2" d="M132.35,115.08c.66.42.95,1.26.9,2.04-.06.78-.4,1.5-.78,2.19-.92,1.64-2.09,3.13-3.46,4.43-.31.29-.7.59-1.11.5-.3-.07-.52-.33-.61-.63-.09-.29-.07-.6-.04-.91.12-1.04.45-2.06.96-2.99-.82.78-1.65,1.57-2.47,2.35-.25.23-.5.48-.83.57-.69.21-1.43-.36-1.64-1.04-.18-.58-.07-1.22.17-1.78-.66.5-1.35,1.02-2.15,1.19-.81.17-1.77-.1-2.15-.84-.32-.64-.11-1.42.21-2.06.32-.64.76-1.24.91-1.95.1-.44.04-1-.24-1.37-.4-.55-.76-.1-1.14.24-.93.82-1.86,1.65-2.79,2.47-.2.18-.41.36-.67.46-.25.1-.56.1-.77-.07-.22-.18-.28-.51-.21-.79s.23-.52.4-.76l3.11-4.49c.34-.49.72-1.01,1.28-1.22.75-.27,1.11.1,1.77.3.87.26,1.59.12,2.43-.08.63-.14,1.56,0,2.08.4.46.36.67.99,1.18,1.27.67.37,1.57,0,2.23.38.52.29.72.95,1.18,1.33.62.52,1.56.43,2.25.86Z"/>
    <path class="cls-2" d="M132.46,92.81c.25.41.52.86.48,1.34-.08,1.04-1.28,1.2-2.05,1.53-1.09.46-2.21.85-3.35,1.16-1.14.31-2.31.55-3.48.71-.61.08-1.22.14-1.84.18-.43.03-1.17-.1-1.56.05,2.2-.87,4.39-1.73,6.59-2.59.57-.23,1.15-.44,1.72-.67.61-.25.63-.25.46-.89-.24-.92-.78-1.79-1.36-2.54-.95-1.21-2.16-2.2-3.35-3.17-.49-.4-1.01-.81-1.63-.95-1.01-.22-1.56.64-2.3,1.11-1.15.73-2.57,1.21-3.81,1.8,1.29-1.56,2.62-3.17,3.24-5.1.62-1.93.38-4.28-1.12-5.64-1.03-.93-2.45-1.26-3.8-1.56-3.52-.77-7.04-1.54-10.56-2.31-.96-.21-1.95-.42-2.92-.29-1.33.18-2.49.97-3.64,1.65-2.24,1.32-4.68,2.29-7.22,2.88l-.15-.62c.2-.05.41-.1.62-.16,2.27-.64,4.35-1.96,5.91-3.74.56-.64,1.05-1.34,1.45-2.09,6.35-1.04,12.91-.41,18.94,1.84,3.68,1.38,5.5,4.15,7.66,7.27,2.46,3.53,4.82,7.13,7.08,10.79Z"/>
    <polygon class="cls-1" points="115.15 4.54 114.75 6.5 107.24 4.98 106.05 10.86 112.6 12.19 112.2 14.16 105.65 12.83 104.33 19.29 111.97 20.84 111.57 22.81 101.61 20.79 105.31 2.54 115.15 4.54"/>
    <path class="cls-2" d="M114.18,122.93c.07.05.21.16.15.26-.06.1-.37.11-.48.13-.39.09-.77.16-1.16.22-.79.11-1.59.14-2.38,0-.29-.05-.58-.12-.83-.27-.25-.15-.45-.41-.48-.71-.02-.29.13-.57.35-.77.21-.2.48-.33.75-.46.69-.34,1.33-.73,2.01-1.1.14-.08.32-.16.45-.06.11.08.12.23.13.36.02.22.14.23.23.39.1.18.13.4.19.6.11.36.45.64.64.96.02.04.05.08.08.12.1.13.22.24.34.33Z"/>
    <path class="cls-2" d="M107.98,90.48v.07s0,.04,0,.05l-.02.84-.39.07.02-.84s0-.05,0-.09c0-.04,0-.06,0-.08,0-.04-.04-.07-.08-.09-.04-.02-.09-.02-.13-.02-.06.01-.11.03-.15.06s-.07.07-.1.11c-.02.04-.04.09-.06.14-.01.05-.02.1-.02.15l-.02.76-.38.07.03-1.44.37-.07v.2s0,0,0,0c.1-.18.24-.28.45-.32.27-.05.43.05.48.29,0,.02,0,.03,0,.06v.07Z"/>
    <path class="cls-2" d="M106.45,91.11l-1.03.19s0,.02,0,.03c0,0,0,.01,0,.02v.04c.02.08.06.14.12.18.06.04.14.05.25.03.04,0,.07-.02.1-.04.03-.02.05-.04.07-.06s.04-.05.05-.07c.01-.02.02-.05.03-.08l.39-.07c-.02.08-.04.16-.07.23-.03.07-.07.12-.12.17s-.11.1-.18.13-.16.06-.26.08c-.1.02-.18.02-.26.01s-.15-.04-.22-.08c-.06-.04-.12-.1-.16-.16s-.08-.15-.1-.25c-.02-.11-.02-.22,0-.33.02-.11.05-.21.1-.3.05-.09.12-.17.21-.24.09-.06.19-.11.31-.13.1-.02.19-.02.27-.01.08.01.16.04.23.08s.12.1.17.16c.05.07.08.15.1.25.01.07.02.14.02.22ZM105.41,91.06l.64-.12s-.02-.07-.03-.1-.03-.06-.05-.09c-.02-.02-.06-.04-.09-.05-.04-.01-.08-.01-.14,0-.05.01-.1.03-.14.05-.04.02-.07.05-.1.08-.03.03-.04.07-.06.11-.01.04-.02.08-.03.12Z"/>
    <path class="cls-2" d="M105.29,122.55c.27.72-.65,1.23-1.18,1.5-1.06.54-2.19.94-3.35,1.18-1.04.22-2.16.07-3.22.06-.13,0-.25.01-.37.04l-.09-.31c.4-.11.8-.25,1.21-.47.39-.2.8-.44,1.13-.73.26-.23.42-.61.44-.96,0-.05,0-.1,0-.15,0,0,4.97-.2,5.41-.16Z"/>
    <path class="cls-2" d="M104.9,91.41l-1.03.19s0,.02,0,.02c0,0,0,.02,0,.02v.03c.02.08.06.14.12.18s.14.05.25.03c.04,0,.07-.02.1-.04.03-.02.05-.04.07-.06.02-.02.04-.05.05-.07.01-.03.02-.05.04-.08l.39-.07c-.02.08-.04.16-.07.23s-.07.13-.12.18c-.05.05-.11.09-.19.13-.07.04-.16.06-.26.08-.09.02-.18.02-.26.01-.08,0-.15-.04-.22-.08-.06-.04-.12-.1-.16-.17-.04-.07-.08-.15-.09-.25-.02-.11-.02-.22,0-.33.02-.11.05-.21.1-.3.05-.09.12-.17.21-.23.09-.07.19-.11.31-.13.1-.02.19-.02.27-.01.09,0,.16.03.23.07s.12.1.17.17c.04.07.08.15.1.25.01.07.02.14.02.22ZM103.86,91.35l.64-.12s-.02-.07-.03-.1c-.01-.03-.03-.06-.06-.09-.02-.03-.05-.04-.09-.05-.04-.01-.08-.01-.14,0-.06,0-.1.03-.14.05s-.07.05-.1.08c-.03.03-.05.07-.06.11-.02.04-.02.08-.03.12Z"/>
    <path class="cls-2" d="M103.49,90.83v.38s-.07,0-.09,0c-.03,0-.06,0-.08,0-.07.01-.13.04-.18.07-.05.03-.08.08-.11.13-.03.05-.05.1-.06.16-.01.06-.02.12-.02.18v.64s-.4.07-.4.07l.03-1.43.37-.07v.26s0,0,0,0c.02-.1.08-.19.15-.25.08-.07.17-.11.27-.13.04,0,.08-.01.12-.01Z"/>
    <path class="cls-2" d="M102.27,92.52l-.39.07-.03-.14c-.04.07-.1.12-.17.17s-.15.07-.23.09c-.08.01-.14.02-.2,0-.06,0-.11-.03-.16-.05s-.08-.06-.11-.1c-.03-.04-.04-.08-.05-.13-.02-.13,0-.25.08-.35s.2-.17.37-.22c.09-.03.16-.05.23-.07s.12-.04.16-.06.07-.04.09-.07.02-.06.01-.11c0-.04-.02-.06-.04-.08s-.04-.03-.07-.04c-.03,0-.05-.01-.08,0-.03,0-.06,0-.08,0-.07.01-.13.04-.17.08-.05.04-.07.1-.07.17l-.36.07c0-.09,0-.17.04-.23.03-.07.07-.12.12-.17.05-.05.12-.09.19-.12s.15-.05.23-.07c.06-.01.13-.02.2-.02.07,0,.14,0,.2.02.06.02.12.04.16.08s.08.1.09.18c.01.06.02.14.01.24l-.02.58s0,.06,0,.1c0,.04,0,.07.02.1,0,.02.01.05.03.08ZM101.86,92.05v-.14s-.08.06-.13.08c-.05.02-.11.03-.16.05-.04.01-.07.02-.1.04-.03.01-.06.03-.08.05-.02.02-.04.05-.05.08s-.01.07,0,.11c0,.05.04.09.08.1.05.02.1.02.15.01.06-.01.11-.03.15-.06.04-.03.07-.06.09-.09.02-.04.04-.07.05-.11,0-.04.02-.08.02-.12Z"/>
    <path class="cls-2" d="M100.75,91.95c.02.11.02.21.01.33s-.04.21-.09.3c-.04.09-.11.17-.19.24-.08.07-.18.11-.3.13-.1.02-.19.02-.28,0-.09-.02-.16-.08-.21-.16h0v.23s-.36.07-.36.07l.04-1.98.38-.07-.02.7h0c.05-.08.1-.13.16-.18.06-.04.13-.07.22-.09.09-.02.17-.02.24,0s.13.05.18.1.09.1.13.17c.03.07.06.14.07.22ZM100.38,92.22c0-.07,0-.13-.01-.19-.02-.09-.05-.15-.1-.21s-.13-.07-.23-.05c-.08.01-.13.05-.18.1-.04.05-.08.11-.1.17s-.04.13-.04.21,0,.14.02.2c.02.09.05.15.11.2.06.04.13.06.22.04.08-.01.13-.04.18-.09.04-.05.08-.1.1-.17.02-.06.03-.13.04-.2Z"/>
    <path class="cls-2" d="M100.3,57.31c.11,1.9.23,3.89-.07,5.78-.33,2.11-1.09,4.46-2.63,6.01-.31.31-.7.57-1.07.79-.07.04-.14.08-.21.09s-.16-.02-.21-.08c-.04-.06-.03-.15.01-.22.04-.07.1-.12.16-.16,1.02-.82,1.87-2.21,2.16-3.5.12-.53.25-1,.28-1.55.04-.61.07-1.22.09-1.82.04-1.22.03-2.44-.03-3.65-.1-1.98-.68-3.97-1.28-5.85-.17-.54-.37-1.1-.64-1.6.76-.04,1.52.06,2.24.31.16.06.32.12.46.21.27.18.28.57.33.87.06.41.12.82.19,1.23.06.37.06.74.12,1.11.11.67.07,1.36.1,2.04Z"/>
    <polygon class="cls-1" points="99.34 1.7 99.34 21.04 96.94 21.04 96.94 12.1 89.28 12.1 89.28 21.04 86.89 21.04 86.89 1.7 89.28 1.7 89.28 10.01 96.94 10.01 96.94 1.7 99.34 1.7"/>
    <path class="cls-2" d="M98.93,110.48c.43.57.37,1.36.29,2.07-.02.17-1.48.54-1.67.59-.61.18-1.23.32-1.85.42-1.21.2-2.41.16-3.62.29.03.21.06.41.08.62l-.84,8.42c-2.41.22-4.95.42-7.13-.61-1.92-.91-3.34-2.68-4.15-4.65-.57-1.37-.86-2.85-1.02-4.32-.06-.61-.27-1.45-.04-2.02.21-.54.71-.85,1.21-1.07,1.26-.55,2.63-.79,3.98-1,2.16-.33,4.34-.15,6.51-.23,2.19-.08,4.39.14,6.53.63.04,0,.08.02.13.03.6.14,1.23.33,1.6.82ZM97.92,111.67c.21-.12.39-.34.38-.59,0-.25-.18-.47-.4-.59-.22-.12-.47-.16-.72-.19-1.19-.16-2.4-.28-3.6-.35-2.17-.13-4.34-.08-6.5,0-2.15.06-4.3.39-6.38.96-.2.06-.41.12-.58.23-.29.19-.46.63-.2.92.22.25.74.21,1.04.24,1.01.12,2.03.21,3.05.27,4.41.27,8.85.04,13.2-.7.24-.04.49-.09.7-.21Z"/>
    <path class="cls-2" d="M98.34,40.76c.3,1.01.57,1.92-.04,2.82-.53.79-1.27,1.44-2.13,1.85-.87.41-1.98.72-2.23,1.65.34-2.12-.03-4.28-.45-6.39-.29-1.42-.61-2.85-1.28-4.14-1.03-1.96-2.86-3.01-4.99-3.43-.75-.15-1.4-.07-2.14-.28-.2-.06-.4-.11-.56-.22-.06-.04-.12-.09-.17-.14-.08-.09-.13-.2-.12-.31,0-.09.04-.18.13-.24.09-.06.21-.06.32-.06,1.92.03,3.76.29,5.56.91,1.81.62,3.26,1.57,4.7,2.68,1.59,1.41,2.83,3.24,3.43,5.29Z"/>
    <path class="cls-2" d="M97.09,125.02l.09.31c-.5.11-.95.42-1.37.67-.7.42-1.39.69-2.21.78-.97.11-1.94.18-2.92.2-1.95.05-3.9-.08-5.81-.48-.61-.13-1.35-.23-1.9-.53-.15-.08-.28-.19-.38-.33-.07-.1-.1-.25-.2-.31-.04-.02-.09-.04-.15-.05l.07-.35c2.72.5,5.49.74,8.26.7,1.42-.02,2.85-.11,4.26-.27.81-.09,1.54-.15,2.27-.35Z"/>
    <path class="cls-2" d="M93.56,51.48c.02.31.09.8-.25.96-.17.08-.38.07-.56.04-.62-.13-.96-.53-1.46-.85-.46-.29-.97-.51-1.49-.67-1.05-.33-2.14-.48-3.24-.58-2.08-.19-4.18.04-6.15.73-1.44.5-2.82,1.34-3.71,2.6-.44.63-.76,1.33-1.07,2.03-.27.62-.52,1.25-.82,1.85-.42.84-.84.72-.76-.18.31-3.49,3.07-6.47,6.17-7.85,1.41-.63,3.22-.87,4.76-.9,1.76-.04,3.53.28,5.15.96.54.23,1.5.91,1.9.24.19-.32.25-.81.34-1.17.07-.31.35-1.01.25-1.31.29.89.59,1.79.77,2.72.09.46.16.92.18,1.39Z"/>
    <path class="cls-2" d="M90.81,78.89l.15.62c-1.07.25-2.15.43-3.24.54-.35.04-.8,0-.92-.33-.27-.79,1.25-.64,1.63-.61.18.02.37.02.54.02.62,0,1.22-.09,1.83-.23Z"/>
    <path class="cls-2" d="M86.75,39.66c.66.29.95.75.77,1.27-.11.33-.46.68-.82.91-.43.27-.89.35-1.4.51.68-.21,1.25-.54,1.6-1,.19-.25.25-.55.16-.83-.13-.39-.53-.73-1.04-.93-.28-.11-.54-.16-.82-.18-.2-.02-.41-.01-.63,0-.59.02-1.18.04-1.77.05.32,0,.64-.1.96-.13.99-.11,2.12-.04,2.98.34Z"/>
    <polygon class="cls-1" points="83.24 1.7 83.63 3.73 78.35 4.75 81.61 21.53 79.09 22.02 75.83 5.24 70.56 6.26 70.17 4.23 83.24 1.7"/>
    <path class="cls-2" d="M82.3,124.93l-.07.35c-.28-.04-.73.03-.95.02-.77-.05-1.53-.15-2.28-.32-1.48-.33-2.92-.86-4.25-1.59-.52-.29-1.1-.78-.93-1.35.12-.39.53-.59.91-.74,1.88-.73,3.85-1.21,5.86-1.42.23.41.46.82.69,1.23-.64.02-1.25.43-1.52,1.02-.27.58-.17,1.31.24,1.81.49.6,1.3.8,2.06.94.08.02.16.03.24.04Z"/>
    <path class="cls-2" d="M80.23,66.49c.36.28.9.45.89.97,0,.41-.38.77-.58,1.1-.4.66-.07.71.33,1.15.28.31.33.82.18,1.2-.23.62-.79,1.04-1.36,1.38-2.02,1.18-4.37,1.57-6.63,2.04-1.12.23-2.25.48-3.34.87-1,.35-1.94,1.07-2.95,1.34-.53.14-1.06-.03-1.57.07-.36.07-.64.33-.91.58-.74.68-1.18,1.59-1.69,2.45-.69,1.17-1.44,2.26-2.56,3.06.25-.18-.61-2.4-.92-2.52-.8-.33-2.18.84-2.63,1.36-.75.84-1.21,1.89-1.66,2.91-1.77,4.05-3.55,8.09-5.32,12.13-.87,1.98-1.73,3.95-2.6,5.92-.43.99-1.58,5.03-2.67,5.07.25-3.16,1.5-6.53,2.52-9.52,1.02-3,2.09-6.6,3.86-9.25,1.74-3.5,3.76-6.85,5.84-10.15.76-1.2,1.33-2.6,2.25-3.68,1.01-1.18,2.08-2.32,3.19-3.41,2.23-2.17,4.66-4.14,7.24-5.88,1.26-.85,2.57-1.64,3.9-2.38,1.32-.73,2.33-1.69,3.87-2.02.68-.15,1.46.19,1.67.89.07.24.1.51.25.72.14.19.36.3.58.39.22.09.45.17.63.34.27.24.29.71.21,1.05-.15.67-.73,1.25-.01,1.81Z"/>
    <path class="cls-2" d="M77.07,79.36c.09.81-.49,1.56-1.19,1.99s-1.51.61-2.26.91c-1.71.69-3.17,2-4.01,3.64-1.27,2.45-1.19,5.47-2.64,7.82.19-1.59.45-3.19.56-4.78-1.58,1.72-3.06,3.58-4.58,5.37-.27.32-.71.67-1.06.44-.13-.09,2.67-5.03,2.97-5.57.87-1.58,1.95-3.03,3.2-4.33,2.47-2.57,5.59-4.51,9.02-5.5Z"/>
    <path class="cls-1" d="M67.3,25.5l-2.6,1.45-1.64-.8c-.2.74-.55,1.44-1.05,2.08-.51.65-1.12,1.17-1.83,1.57-1.5.84-2.95,1.04-4.36.6s-2.54-1.4-3.37-2.89c-.47-.84-.7-1.73-.7-2.67,0-.94.31-2.21.93-3.8-1.2-.56-2.09-1.08-2.68-1.55-.59-.47-1.05-1-1.38-1.6-.76-1.37-1.01-2.62-.74-3.78.27-1.16,1-2.06,2.17-2.72,1.08-.6,2.17-.74,3.26-.41,1.1.33,1.95,1.04,2.55,2.12.39.7.62,1.43.67,2.18.06.75-.1,1.63-.46,2.64l-.66,1.78,5.67,2.77c-.16-1.19-.58-2.39-1.26-3.61l1.94-1.08c1.15,2.06,1.69,3.99,1.6,5.8l3.94,1.92ZM61.02,25.13l-6.43-3.18-.19.51c-.46,1.49-.4,2.77.2,3.85.53.95,1.21,1.58,2.02,1.89s1.66.23,2.52-.25c.96-.54,1.58-1.48,1.88-2.82ZM54,17.46c.27-.68.4-1.25.37-1.73-.03-.47-.19-.98-.49-1.52-.3-.54-.72-.9-1.25-1.09-.53-.19-1.05-.14-1.55.14-.53.3-.82.76-.86,1.38-.04.62.13,1.28.51,1.97.25.44.61.83,1.09,1.18.48.34,1.04.68,1.69,1l.49-1.34Z"/>
    <polygon class="cls-1" points="48.07 37.24 41.72 44.63 27.22 32.17 33.49 24.87 35.05 26.22 30.27 31.79 34.94 35.8 39.12 30.94 40.68 32.28 36.51 37.14 41.64 41.56 46.51 35.9 48.07 37.24"/>
    <path class="cls-1" d="M37.74,46.98c.83,1.64.8,3.31-.12,5.03-.88,1.65-2.22,2.6-4.02,2.87-1.8.27-3.89-.21-6.28-1.43l-3.4-1.81c-2.41-1.29-4.05-2.77-4.92-4.44-.87-1.67-.85-3.35.05-5.05.9-1.68,2.25-2.65,4.06-2.89,1.81-.24,3.94.27,6.38,1.54l3.29,1.75c2.46,1.31,4.11,2.79,4.95,4.43ZM35.61,50.94c.6-1.13.6-2.2,0-3.22s-1.82-2.03-3.65-3.03l-3.38-1.8c-1.91-1.02-3.48-1.5-4.7-1.44-1.23.06-2.14.66-2.75,1.8-.59,1.11-.56,2.19.08,3.26s1.87,2.1,3.71,3.08l3.24,1.72c1.84.98,3.4,1.45,4.67,1.4,1.27-.05,2.2-.64,2.8-1.77Z"/>
    <path class="cls-1" d="M31.15,60.16c.6,1.28.57,2.59-.09,3.93-.68,1.38-1.68,2.22-3,2.52-1.32.3-2.81.04-4.47-.78l1.01-2.04c1.05.52,1.97.72,2.76.6.79-.12,1.36-.54,1.72-1.27.35-.71.31-1.43-.12-2.17s-1.22-1.39-2.37-1.96l-12.97-6.41,1.01-2.05,12.98,6.41c1.75.87,2.93,1.94,3.53,3.22Z"/>
  </g>
  <text class="cls-3" transform="translate(42.26 152.34)"><tspan x="0" y="0">ba</tspan><tspan class="cls-4" x="34.09" y="0">r</tspan><tspan x="44.76" y="0">een</tspan></text>
</svg>