<?xml version="1.0" encoding="UTF-8"?><svg xmlns="http://www.w3.org/2000/svg" width="47" height="30.49" xmlns:xlink="http://www.w3.org/1999/xlink" viewBox="0 0 47 30.49"><defs><style>.cls-1{opacity:.4;}.cls-1,.cls-2,.cls-3{mix-blend-mode:multiply;}.cls-4{fill:none;stroke:#353535;stroke-miterlimit:10;}.cls-5,.cls-6,.cls-2,.cls-3{isolation:isolate;}.cls-6{fill:url(#Ikke-navngivet_forløb_8);opacity:.9;}.cls-2{fill:url(#Ikke-navngivet_forløb_2-2);}.cls-2,.cls-3{opacity:.7;}.cls-7{fill:#353535;}.cls-3{fill:url(#Ikke-navngivet_forløb_2);}</style><linearGradient id="Ikke-navngivet_forløb_2" x1="-288.29" y1="896.07" x2="-288.28" y2="896.31" gradientTransform="translate(8001.46 16904.65) rotate(-22.5) scale(3.14 -20.82)" gradientUnits="userSpaceOnUse"><stop offset="0" stop-color="#504678"/><stop offset=".3" stop-color="#504678" stop-opacity=".62"/><stop offset=".61" stop-color="#504678" stop-opacity=".28"/><stop offset=".85" stop-color="#504678" stop-opacity=".08"/><stop offset="1" stop-color="#504678" stop-opacity="0"/></linearGradient><linearGradient id="Ikke-navngivet_forløb_2-2" x1="-463.43" y1="921.56" x2="-463.42" y2="921.8" gradientTransform="translate(-9630.08 -19498.31) rotate(157.5) scale(3.14 -23.57)" xlink:href="#Ikke-navngivet_forløb_2"/><linearGradient id="Ikke-navngivet_forløb_8" x1="20.76" y1="13.49" x2="31.05" y2="13.49" gradientUnits="userSpaceOnUse"><stop offset="0" stop-color="#fff"/><stop offset=".05" stop-color="#e2e2e2"/><stop offset=".15" stop-color="#adadad"/><stop offset=".26" stop-color="#7f7f7f"/><stop offset=".37" stop-color="#585858"/><stop offset=".48" stop-color="#383838"/><stop offset=".6" stop-color="#1f1f1f"/><stop offset=".72" stop-color="#0d0d0d"/><stop offset=".85" stop-color="#030303"/><stop offset="1" stop-color="#000"/></linearGradient></defs><g class="cls-5"><g id="Lag_1"><rect class="cls-4" x=".5" y=".5" width="46" height="29.49" rx="4.9" ry="4.9"/><path class="cls-7" d="M21.9,26.1c-.61,0-1.15-.45-1.38-1.13l-5.16-15.29c-.32-.94.05-2.01.81-2.4l5.41-2.75c.37-.19.78-.19,1.14,0,.37.19.66.54.81.99l5.16,15.29c.32.94-.05,2.01-.81,2.4l-5.41,2.75c-.18.09-.37.14-.57.14ZM22.14,5.38c-.09,0-.18.02-.26.07l-5.41,2.75c-.17.09-.3.25-.37.46-.07.21-.07.44,0,.65l5.16,15.29c.15.43.55.64.9.46l5.41-2.75h0c.17-.09.3-.25.37-.46.07-.21.07-.44,0-.65l-5.16-15.29c-.11-.32-.36-.52-.64-.52Z"/><polygon class="cls-3" points="23.12 6.91 23.86 6.53 25.91 12.59 25.16 12.96 23.12 6.91"/><polygon class="cls-2" points="28.34 19.8 27.6 20.18 25.28 13.32 26.03 12.94 28.34 19.8"/><path class="cls-7" d="M26.66,15.63c-1.55.79-2.84,1.87-3.68,3.18l-2.18-6.46c.99-1.42,2.26-2.51,3.68-3.18,1.55-.79,3.11-1.17,4.44-.95l2.18,6.46c-1.52-.14-3.04.18-4.44.95Z"/><g class="cls-1"><path class="cls-6" d="M26.62,15.63c-1.55.79-2.84,1.87-3.68,3.18l-2.18-6.46c.99-1.42,2.26-2.51,3.68-3.18,1.55-.79,3.11-1.17,4.44-.95l2.18,6.46c-1.52-.14-3.04.18-4.44.95Z"/></g><path class="cls-7" d="M27.37,17.6c-1.67,0-3.21.4-4.39,1.21v-6.53c1.36-.84,2.87-1.26,4.39-1.21,1.67,0,3.24.38,4.39,1.21v6.53c-1.36-.84-2.87-1.26-4.39-1.21Z"/></g></g></svg>