<?xml version="1.0" encoding="UTF-8"?><svg id="Lag_1" xmlns="http://www.w3.org/2000/svg" width="47" height="30.49" viewBox="0 0 47 30.49"><defs><style>.cls-1{fill:none;stroke:#353535;stroke-miterlimit:10;}.cls-2{fill:#353535;}</style></defs><rect class="cls-1" x=".5" y=".5" width="46" height="29.49" rx="4.9" ry="4.9"/><path class="cls-2" d="M19.67,10.26l-4.16,10h-2.72l-2.05-7.98c-.12-.49-.23-.67-.61-.88-.62-.34-1.64-.65-2.54-.85l.06-.29h4.37c.56,0,1.06.37,1.19,1.02l1.08,5.79,2.67-6.81h2.7ZM30.32,16.99c.01-2.64-3.63-2.78-3.6-3.96,0-.36.35-.74,1.09-.84.37-.05,1.38-.09,2.53.45l.45-2.12c-.62-.23-1.41-.44-2.4-.44-2.54,0-4.33,1.36-4.34,3.31-.02,1.44,1.28,2.24,2.25,2.72,1,.49,1.34.8,1.33,1.24,0,.67-.8.97-1.54.98-1.29.02-2.04-.35-2.64-.63l-.47,2.19c.6.28,1.71.52,2.86.53,2.7,0,4.47-1.34,4.47-3.42M37.03,20.26h2.38l-2.08-10h-2.19c-.49,0-.91.29-1.09.73l-3.86,9.27h2.7l.54-1.49h3.3l.31,1.49ZM34.16,16.72l1.35-3.75.78,3.75h-2.13ZM23.35,10.26l-2.13,10h-2.57l2.13-10h2.57Z"/></svg>