<?xml version="1.0" encoding="UTF-8"?>
<svg id="Layer_2" data-name="Layer 2" xmlns="http://www.w3.org/2000/svg" viewBox="0 0 854.85 796.38">
  <defs>
    <style>
      .cls-1 {
        font-family: HelveticaNeue-BoldItalic, 'Helvetica Neue';
        font-size: 130px;
        font-style: italic;
        font-weight: 700;
      }

      .cls-1, .cls-2 {
        fill: #353535;
      }

      .cls-3 {
        letter-spacing: -.02em;
      }
    </style>
  </defs>
  <g>
    <path class="cls-2" d="M66.97,281.12l4.58-9.28,58.68,28.98c7.93,3.92,13.25,8.77,15.96,14.56,2.71,5.79,2.57,11.71-.42,17.76-3.07,6.22-7.59,10.01-13.55,11.37-5.96,1.36-12.7.19-20.21-3.52l4.56-9.23c4.74,2.34,8.9,3.25,12.47,2.71,3.57-.54,6.17-2.45,7.79-5.75s1.4-6.46-.54-9.8c-1.94-3.34-5.5-6.29-10.7-8.86l-58.62-28.95Z"/>
    <path class="cls-2" d="M153.64,235.83c11.13,5.93,18.58,12.6,22.36,20,3.78,7.41,3.6,14.98-.52,22.72-3.97,7.44-10.02,11.77-18.17,12.97-8.14,1.2-17.6-.96-28.37-6.48l-15.35-8.18c-10.91-5.81-18.31-12.49-22.22-20.06-3.91-7.56-3.83-15.16.24-22.8s10.17-11.96,18.36-13.06c8.18-1.1,17.79,1.23,28.83,6.98l14.85,7.91ZM134.52,237.3c-8.63-4.6-15.71-6.76-21.24-6.5-5.53.26-9.67,2.97-12.42,8.13-2.66,5-2.55,9.91.35,14.74,2.89,4.83,8.47,9.47,16.75,13.92l14.62,7.79c8.33,4.44,15.36,6.54,21.1,6.3,5.74-.24,9.96-2.9,12.67-8,2.71-5.09,2.71-9.94-.02-14.54-2.73-4.6-8.23-9.16-16.51-13.7l-15.29-8.15Z"/>
    <path class="cls-2" d="M189.27,189.38l-18.87,21.97,23.23,19.95,21.98-25.59,7.07,6.07-28.69,33.4-65.54-56.3,28.32-32.97,7.07,6.07-21.62,25.16,21.11,18.14,18.87-21.97,7.07,6.07Z"/>
    <path class="cls-2" d="M242.42,167.85c-2.13-3.8-3.18-7.83-3.16-12.09.02-4.25,1.42-9.97,4.2-17.15-5.4-2.55-9.44-4.89-12.1-7.01-2.67-2.12-4.75-4.53-6.26-7.23-3.45-6.17-4.56-11.86-3.33-17.08,1.23-5.22,4.5-9.32,9.82-12.29,4.88-2.73,9.79-3.34,14.75-1.85,4.96,1.5,8.8,4.68,11.52,9.56,1.78,3.18,2.79,6.46,3.04,9.86.25,3.4-.44,7.37-2.06,11.92l-2.98,8.07,25.61,12.51c-.72-5.37-2.62-10.8-5.7-16.3l8.75-4.89c5.2,9.31,7.62,18.04,7.24,26.21l17.79,8.67-11.75,6.57-7.41-3.64c-.89,3.36-2.47,6.5-4.76,9.43s-5.04,5.29-8.25,7.09c-6.76,3.78-13.33,4.69-19.71,2.73-6.38-1.96-11.46-6.32-15.24-13.08ZM272.69,169.83c4.32-2.42,7.16-6.67,8.5-12.75l-29.05-14.37-.89,2.31c-2.09,6.75-1.79,12.54.92,17.38,2.4,4.29,5.45,7.14,9.15,8.56s7.49,1.05,11.37-1.12ZM234.66,118.59c1.12,1.99,2.76,3.77,4.93,5.31s4.72,3.06,7.63,4.54l2.22-6.04c1.24-3.07,1.8-5.67,1.67-7.81-.13-2.13-.87-4.42-2.24-6.86-1.36-2.44-3.25-4.07-5.65-4.91-2.41-.84-4.74-.62-6.99.64-2.4,1.34-3.7,3.42-3.89,6.25-.19,2.82.58,5.78,2.31,8.89Z"/>
    <path class="cls-2" d="M383.38,60.34l-23.87,4.63,14.71,75.85-11.4,2.21-14.71-75.85-23.8,4.62-1.78-9.17,59.08-11.45,1.78,9.17Z"/>
    <path class="cls-2" d="M454.37,138.57h-10.87v-40.4h-34.62v40.4h-10.81V51.17h10.81v37.58h34.62v-37.58h10.87v87.4Z"/>
    <path class="cls-2" d="M512.48,107.47l-29.62-6.01-5.93,29.23,34.51,7-1.8,8.89-45.04-9.14,16.73-82.47,44.46,9.02-1.8,8.89-33.94-6.88-5.39,26.56,29.62,6.01-1.8,8.89Z"/>
    <path class="cls-2" d="M614.7,93.78l9.02,5.06-32.01,57.08c-4.33,7.72-9.45,12.77-15.38,15.18-5.92,2.4-11.83,1.95-17.71-1.35-6.05-3.39-9.6-8.1-10.65-14.12-1.05-6.02.47-12.69,4.57-20l8.98,5.03c-2.59,4.61-3.71,8.72-3.36,12.31.35,3.59,2.13,6.29,5.33,8.08s6.38,1.73,9.81-.03c3.44-1.76,6.57-5.17,9.41-10.23l31.98-57.03Z"/>
    <path class="cls-2" d="M685.88,153.4l-41.99,46.93c-5.66,6.2-11.81,9.52-18.45,9.94-6.65.42-13.08-2.15-19.3-7.72-6.37-5.7-9.69-11.79-9.96-18.26-.27-6.47,2.44-12.93,8.11-19.4l41.99-46.93,8.05,7.2-41.67,46.58c-3.97,4.44-6.02,8.58-6.13,12.42-.12,3.84,1.88,7.59,5.98,11.26s8.1,5.27,11.9,4.73c3.8-.54,7.69-3.03,11.66-7.47l41.67-46.58,8.14,7.28Z"/>
    <path class="cls-2" d="M648.26,239.03l-7.32-9.02,69.29-56.22,7.32,9.02-69.29,56.22Z"/>
    <path class="cls-2" d="M709.54,280.56c-8.19,4.22-15.52,5.62-21.99,4.2s-11.76-5.65-15.84-12.71c-4.1-7.09-4.53-14.36-1.28-21.82s9.72-13.99,19.42-19.6l13.47-7.8c9.66-5.59,18.54-7.87,26.64-6.83s14.29,5.27,18.58,12.68c3.95,6.83,4.87,13.36,2.75,19.58-2.12,6.22-7.09,11.81-14.9,16.76l-5.2-8.98c5.83-3.89,9.45-7.61,10.85-11.15,1.4-3.54.9-7.39-1.52-11.57-2.79-4.82-6.92-7.38-12.38-7.68-5.46-.3-12.02,1.77-19.68,6.2l-13.63,7.89c-7.52,4.35-12.59,8.9-15.21,13.63-2.62,4.73-2.59,9.42.09,14.05,2.68,4.63,5.82,7.27,9.41,7.91,3.6.64,8.66-.61,15.21-3.74l5.2,8.98Z"/>
    <path class="cls-2" d="M744.05,325.7l-10.8-25.95-27.85,11.59,12.58,30.24-8.47,3.53-16.42-39.46,78.58-32.7,16.21,38.96-8.47,3.53-12.38-29.73-25.31,10.53,10.8,25.95-8.47,3.53Z"/>
  </g>
  <text class="cls-1" transform="translate(207.69 738.57)"><tspan x="0" y="0">ba</tspan><tspan class="cls-3" x="154.05" y="0">r</tspan><tspan x="202.28" y="0">een</tspan></text>
  <path class="cls-2" d="M347.23,295.4c1.37-3.19,2.84-6.32,4.83-9.17,4.01-5.73,10.24-9.5,16.76-11.78,8.9-3.11,18.41-4.18,27.79-3.31,4.93.46,9.89,1.1,14.62,2.61,2.35.75,4.65,1.72,6.73,3.05,2.28,1.46,3.8,3.27,6.61,3.84.85.17,1.77.23,2.54-.15,1.56-.76,1.21-2.95,1.13-4.37-.11-2.11-.4-4.2-.82-6.27-.83-4.18-2.15-8.24-3.49-12.28.45,1.36-.78,4.56-1.12,5.94-.39,1.63-.67,3.81-1.53,5.27-1.77,3.01-6.11-.06-8.57-1.08-7.35-3.05-15.34-4.5-23.29-4.33-6.96.15-15.13,1.22-21.49,4.07-13.98,6.25-26.45,19.71-27.87,35.49-.36,4.05,1.54,4.59,3.45.8,1.36-2.71,2.5-5.54,3.71-8.34Z"/>
  <path class="cls-2" d="M386.52,190.28c.21.25.48.47.76.65.76.48,1.67.74,2.56.99,3.34.94,6.31.57,9.69,1.25,9.62,1.93,17.9,6.65,22.57,15.51,3.05,5.79,4.49,12.28,5.79,18.7,1.92,9.51,3.59,19.29,2.05,28.87,1.12-4.2,6.16-5.61,10.09-7.47,3.89-1.84,7.25-4.76,9.65-8.34,2.74-4.08,1.5-8.19.16-12.74-2.73-9.25-8.29-17.55-15.49-23.91-6.48-5.05-13.03-9.33-21.22-12.13-8.14-2.79-16.45-3.97-25.12-4.1-.5,0-1.05,0-1.46.25-.38.24-.57.66-.58,1.07-.01.51.21.99.56,1.4Z"/>
  <path class="cls-2" d="M407.51,401.06c3.74-.01,7.32-.71,11.06-1.77,10.27-2.9,19.67-8.85,26.7-16.88,2.53-2.89,4.74-6.06,6.57-9.44,28.69-4.67,58.36-1.87,85.57,8.33,16.62,6.23,24.84,18.76,34.63,32.84,11.1,15.96,21.77,32.23,32,48.77,1.14,1.85,2.33,3.87,2.17,6.04-.34,4.71-5.79,5.42-9.28,6.9-4.93,2.09-10,3.85-15.16,5.26s-10.42,2.48-15.73,3.19c-2.76.37-5.53.64-8.31.82-1.95.12-5.29-.46-7.06.24,9.92-3.9,19.85-7.8,29.77-11.7,2.59-1.02,5.2-1.99,7.76-3.05,2.74-1.14,2.86-1.12,2.09-4.03-1.1-4.15-3.53-8.1-6.15-11.46-4.29-5.49-9.74-9.94-15.14-14.34-2.22-1.81-4.56-3.68-7.36-4.28-4.55-.99-7.06,2.91-10.37,5.03-5.19,3.32-11.63,5.49-17.21,8.12,5.85-7.05,11.83-14.32,14.64-23.04,2.81-8.72,1.72-19.34-5.07-25.49-4.63-4.2-11.05-5.69-17.16-7.03-15.9-3.48-31.81-6.96-47.71-10.44-4.35-.95-8.8-1.91-13.21-1.31-6.02.81-11.24,4.38-16.47,7.46-14.39,8.46-30.62,13.76-47.23,15.42-1.58.16-3.62.01-4.15-1.49-1.24-3.55,5.62-2.89,7.37-2.75.83.07,1.65.1,2.47.09Z"/>
  <path class="cls-2" d="M353.71,402.11c.4,3.66-2.23,7.06-5.38,8.98s-6.81,2.76-10.23,4.13c-7.74,3.1-14.31,9.05-18.14,16.46-5.74,11.09-5.36,24.73-11.91,35.36.86-7.18,2.04-14.41,2.54-21.61-7.14,7.79-13.82,16.2-20.7,24.26-1.23,1.45-3.2,3.03-4.8,2-.61-.39,12.07-22.74,13.41-25.17,3.93-7.12,8.82-13.71,14.46-19.58,11.14-11.6,25.26-20.39,40.75-24.84Z"/>
  <path class="cls-2" d="M205.28,529.62c4.91-.19,10.11-18.46,12.07-22.93,3.92-8.92,7.83-17.85,11.75-26.77,8.02-18.27,16.04-36.55,24.06-54.82,2.04-4.65,4.13-9.37,7.5-13.17,2.07-2.33,8.3-7.6,11.9-6.13,1.4.57,5.3,10.6,4.17,11.41,5.09-3.64,8.46-8.56,11.58-13.86,2.28-3.87,4.29-7.97,7.63-11.07,1.19-1.11,2.46-2.3,4.09-2.62,2.33-.45,4.7.33,7.11-.31,4.58-1.22,8.79-4.46,13.34-6.06,4.9-1.73,9.99-2.86,15.08-3.91,10.23-2.11,20.84-3.86,29.98-9.21,2.57-1.5,5.1-3.43,6.16-6.22.65-1.72.45-4-.83-5.42-1.82-2-3.33-2.25-1.5-5.21.93-1.5,2.6-3.1,2.64-4.97.05-2.36-2.4-3.12-4.01-4.38-3.25-2.53-.62-5.17.05-8.19.33-1.51.23-3.65-.98-4.74-.8-.72-1.84-1.1-2.83-1.51s-2.01-.91-2.64-1.79c-.67-.94-.8-2.15-1.13-3.25-.96-3.18-4.47-4.68-7.56-4.02-6.94,1.49-11.52,5.83-17.48,9.11-6.03,3.32-11.92,6.91-17.63,10.75-11.68,7.85-22.64,16.75-32.72,26.57-5.04,4.91-9.85,10.05-14.42,15.39-4.16,4.86-6.75,11.2-10.18,16.63-9.41,14.91-18.53,30.05-26.39,45.86-8,12.01-12.81,28.24-17.43,41.81-4.6,13.51-10.24,28.74-11.37,43.02Z"/>
  <g>
    <path class="cls-2" d="M456.3,454.82l-.07,3.16h.02c.21-.34.45-.61.71-.79.26-.19.59-.32,1.01-.4s.77-.07,1.08.01c.31.09.58.23.81.44s.42.46.56.77c.15.31.25.64.32,1,.09.48.11.97.06,1.47-.05.5-.18.95-.39,1.37-.21.42-.49.78-.86,1.08-.36.3-.82.5-1.35.61-.44.08-.86.08-1.25-.01-.39-.09-.71-.34-.94-.75h-.02s-.02,1.02-.02,1.02l-1.59.3.19-8.96,1.74-.33ZM456.7,458.64c-.2.22-.35.48-.46.77-.1.29-.16.6-.17.93-.01.33.01.63.06.9.07.39.24.68.51.88.27.2.6.27,1,.19.33-.06.6-.2.8-.41.2-.21.35-.46.45-.75.1-.29.16-.59.17-.91.01-.32,0-.61-.06-.88-.07-.39-.23-.71-.47-.94-.24-.23-.58-.3-1.03-.22-.34.06-.61.21-.82.43Z"/>
    <path class="cls-2" d="M462.07,457.13c.14-.3.33-.55.56-.76.24-.21.52-.38.84-.51.32-.13.66-.23,1.02-.3.29-.05.59-.09.9-.11.32-.02.62,0,.9.07.28.07.53.19.74.37.21.18.34.45.4.81.06.3.08.66.06,1.07l-.09,2.62c-.01.12,0,.26.01.43.02.17.04.31.06.43.02.1.06.22.13.35l-1.74.33-.12-.62c-.19.31-.44.56-.76.75s-.66.32-1.03.39c-.34.06-.65.08-.92.04-.27-.04-.51-.12-.71-.23-.2-.12-.36-.27-.48-.45-.12-.18-.2-.38-.24-.6-.11-.6,0-1.13.36-1.57.35-.44.9-.78,1.65-1.01.4-.13.75-.23,1.04-.31.3-.08.54-.17.73-.26.19-.09.32-.19.4-.31.08-.12.1-.28.06-.48-.03-.16-.09-.28-.18-.37-.09-.08-.2-.14-.32-.18-.12-.04-.25-.05-.38-.05-.13,0-.25.02-.37.04-.31.06-.57.19-.79.38-.22.2-.32.45-.32.78l-1.63.31c-.02-.4.04-.76.18-1.05ZM465.14,459.21c-.25.08-.5.15-.75.21-.16.05-.31.1-.46.17-.15.07-.27.15-.38.24-.1.09-.18.21-.23.35-.05.14-.06.3-.02.5.04.23.17.39.39.47.21.08.45.1.7.05.27-.05.49-.14.65-.25.17-.12.3-.26.4-.41.1-.16.17-.33.21-.51.04-.18.07-.36.09-.54l.06-.64c-.2.17-.42.29-.66.37Z"/>
    <path class="cls-2" d="M470.63,454.57l-.04,1.17.03.02c.11-.47.35-.85.7-1.15.35-.3.76-.49,1.23-.58.18-.03.36-.06.54-.07l-.04,1.73c-.13,0-.25,0-.38,0-.13,0-.25.01-.37.03-.33.06-.61.17-.82.33-.21.16-.38.35-.5.57-.12.22-.21.47-.25.73-.05.26-.07.53-.08.81l-.06,2.87-1.72.33.13-6.48,1.65-.31Z"/>
    <path class="cls-2" d="M474.82,457.55l.02.1.03.16c.07.36.24.63.51.82.27.18.64.23,1.11.14.17-.03.32-.09.44-.16.12-.08.23-.17.32-.27.09-.1.16-.21.22-.33.06-.12.11-.23.16-.34l1.74-.33c-.07.38-.18.72-.31,1.02-.14.3-.32.57-.55.8-.23.23-.5.42-.83.58-.33.15-.72.27-1.18.36-.42.08-.82.1-1.19.05-.37-.05-.7-.16-.98-.35-.29-.18-.53-.43-.73-.74-.2-.31-.34-.69-.43-1.14-.09-.5-.1-.99-.03-1.49.08-.49.23-.95.46-1.36.23-.41.54-.77.93-1.06.39-.29.86-.49,1.39-.59.44-.08.85-.1,1.24-.06.38.04.73.16,1.03.34.3.18.55.43.76.74.21.32.35.7.44,1.15.06.31.09.64.09,1l-4.66.88s0,.08,0,.11ZM477.55,455.31c-.06-.15-.14-.28-.25-.4-.11-.11-.24-.19-.41-.24-.17-.05-.38-.05-.63,0s-.45.12-.63.23c-.17.11-.32.24-.43.38-.12.15-.21.31-.27.49-.06.18-.11.36-.14.55l2.9-.55c-.03-.16-.07-.32-.13-.47Z"/>
    <path class="cls-2" d="M481.83,456.23l.02.1.03.16c.07.36.24.63.51.82.27.18.64.23,1.11.14.17-.03.32-.09.44-.16.12-.08.23-.17.32-.27.09-.1.16-.21.22-.33.06-.12.11-.23.16-.34l1.74-.33c-.07.38-.18.72-.31,1.02-.14.3-.32.57-.55.8-.23.23-.5.42-.83.58-.33.15-.72.27-1.18.36-.42.08-.82.1-1.19.05-.37-.05-.7-.16-.98-.35-.29-.18-.53-.43-.73-.74-.2-.31-.34-.69-.42-1.14-.09-.5-.1-.99-.03-1.49.08-.49.23-.95.46-1.36.23-.41.54-.77.93-1.06.39-.29.86-.49,1.39-.59.44-.08.85-.1,1.24-.06.38.04.73.16,1.03.34.3.18.55.43.76.74.21.32.35.7.44,1.15.06.31.09.64.09,1l-4.66.88s0,.08,0,.11ZM484.56,453.98c-.06-.15-.14-.28-.25-.4-.11-.11-.24-.19-.41-.24-.17-.05-.38-.05-.63,0s-.45.12-.63.23c-.17.11-.32.24-.43.38-.12.15-.21.31-.27.49-.06.18-.11.36-.14.55l2.9-.55c-.03-.16-.07-.32-.13-.47Z"/>
    <path class="cls-2" d="M489.21,451.06l-.03.91h.02c.43-.8,1.1-1.29,2.02-1.46,1.23-.23,1.95.21,2.16,1.33.01.06.02.15.02.25,0,.1,0,.21,0,.32,0,.11,0,.21,0,.31,0,.1,0,.17,0,.23l-.09,3.8-1.74.33.08-3.8c0-.1,0-.23,0-.4,0-.17-.01-.29-.03-.38-.03-.18-.15-.32-.35-.41-.2-.09-.4-.11-.6-.07-.26.05-.48.14-.66.28-.18.14-.33.3-.44.49-.11.19-.2.4-.25.62-.05.23-.09.45-.09.68l-.08,3.45-1.72.33.13-6.48,1.66-.31Z"/>
  </g>
  <path class="cls-2" d="M390.49,221.6c1.26.09,2.46.32,3.71.81,2.29.9,4.1,2.43,4.68,4.22.4,1.25.15,2.61-.72,3.74-1.58,2.07-4.14,3.58-7.23,4.53,2.29-.71,4.37-1.09,6.31-2.31,1.61-1.01,3.18-2.63,3.69-4.11.82-2.37-.51-4.44-3.5-5.76-3.91-1.73-8.99-2.04-13.48-1.53-1.43.16-2.89.56-4.34.6l8.01-.24c1.01-.03,1.95-.03,2.86.03Z"/>
  <path class="cls-2" d="M455.35,278.75c1.23.8,1.26,2.58,1.47,3.95.29,1.85.55,3.71.85,5.56.27,1.67.28,3.33.55,5.01.49,3,.3,6.14.48,9.2.49,8.6,1.04,17.57-.32,26.11-1.51,9.53-4.94,20.17-11.9,27.17-1.4,1.41-3.14,2.59-4.85,3.58-.3.18-.62.35-.97.4s-.74-.07-.93-.37c-.19-.3-.13-.7.06-1s.47-.52.74-.74c4.63-3.71,8.45-9.97,9.75-15.81.54-2.42,1.1-4.5,1.27-7,.19-2.74.32-5.49.41-8.24.16-5.5.11-11-.16-16.5-.44-8.94-3.08-17.95-5.77-26.45-.78-2.46-1.67-4.94-2.88-7.21,3.42-.2,6.88.27,10.12,1.39.72.25,1.43.53,2.06.95Z"/>
  <path class="cls-2" d="M519.85,597.52c.44.58.98,1.06,1.56,1.51.31.24.96.71.69,1.18s-1.68.51-2.15.61c-1.74.38-3.48.72-5.24.97-3.56.5-7.19.62-10.75.04-1.31-.21-2.64-.52-3.77-1.22s-2.04-1.86-2.15-3.19c-.1-1.32.6-2.6,1.57-3.5s2.18-1.49,3.37-2.06c3.14-1.52,6.02-3.28,9.07-4.98.64-.36,1.46-.71,2.05-.28.48.35.54,1.03.59,1.62.08,1,.62,1.05,1.03,1.75.47.8.59,1.83.88,2.7.51,1.61,2.02,2.9,2.9,4.32.12.19.24.37.37.54Z"/>
  <path class="cls-2" d="M548.89,568.41c-.67,3.18-2.64,5.89-4.1,8.79s-2.4,6.43-.94,9.33c1.68,3.34,6.05,4.56,9.7,3.78s6.75-3.11,9.73-5.37c-1.09,2.53-1.59,5.43-.78,8.06.96,3.11,4.3,5.64,7.42,4.71,1.47-.44,2.64-1.53,3.75-2.59,3.72-3.54,7.44-7.09,11.16-10.63-2.29,4.16-3.77,8.77-4.33,13.49-.16,1.37-.25,2.79.17,4.1s1.42,2.52,2.76,2.82c1.87.42,3.64-.94,5.03-2.26,6.17-5.83,11.45-12.6,15.62-20,1.73-3.07,3.29-6.36,3.54-9.87.25-3.52-1.08-7.33-4.06-9.22-3.09-1.95-7.35-1.55-10.16-3.88-2.08-1.72-2.99-4.67-5.34-6-3.01-1.7-7.08-.04-10.1-1.72-2.3-1.28-3.27-4.12-5.33-5.75-2.33-1.85-6.56-2.49-9.39-1.84-3.83.88-7.05,1.53-11,.35-3.02-.9-4.63-2.57-8.02-1.33-2.54.93-4.24,3.28-5.78,5.5-4.69,6.77-9.38,13.54-14.07,20.31-.74,1.07-1.5,2.17-1.8,3.44s-.04,2.76.97,3.58c.95.77,2.35.78,3.49.33s2.09-1.27,3-2.09c4.21-3.72,8.42-7.44,12.63-11.17,1.73-1.53,3.35-3.56,5.17-1.09,1.25,1.69,1.49,4.19,1.07,6.19Z"/>
  <path class="cls-2" d="M456.78,598.73c.01-.23.01-.46,0-.68,0,.03,22.45-.91,24.46-.72,1.22,3.24-2.94,5.54-5.34,6.76-4.78,2.43-9.88,4.23-15.13,5.35-4.69,1-9.75.33-14.53.29-2.91-.03-5.48,1.77-7.87,3.2-3.18,1.9-6.3,3.13-9.97,3.54-4.38.49-8.77.8-13.18.91-8.79.21-17.64-.38-26.25-2.18-2.75-.58-6.1-1.03-8.59-2.41-.66-.37-1.28-.87-1.72-1.48-.33-.46-.45-1.14-.92-1.41-.97-.54-3.81-.04-4.98-.11-3.47-.21-6.92-.7-10.31-1.45-6.7-1.47-13.21-3.89-19.23-7.19-2.35-1.29-4.97-3.52-4.21-6.09.52-1.75,2.39-2.67,4.1-3.33,8.49-3.31,17.43-5.48,26.49-6.43,1.04,1.85,2.09,3.7,3.13,5.55-2.9.1-5.66,1.96-6.85,4.6s-.75,5.94,1.08,8.18c2.21,2.69,5.88,3.6,9.3,4.25,12.65,2.41,25.54,3.54,38.41,3.38,6.44-.08,12.87-.48,19.27-1.21,5.64-.64,10.5-.96,15.72-3.69,1.75-.92,3.61-1.97,5.1-3.28,1.17-1.03,1.91-2.77,2-4.35Z"/>
  <path class="cls-2" d="M452.51,542.79c-1.67-2.2-4.53-3.07-7.22-3.71-.19-.05-.39-.09-.58-.14-9.65-2.24-19.59-3.2-29.49-2.86-9.82.34-19.64-.47-29.42,1.02-6.11.93-12.28,2.02-17.97,4.52-2.3,1.01-4.53,2.4-5.48,4.83-1.01,2.59-.1,6.41.18,9.15.7,6.67,2.03,13.32,4.6,19.53,3.66,8.88,10.05,16.93,18.75,21.02,9.89,4.65,21.37,3.75,32.25,2.74l3.78-38.05c-.12-.93-.25-1.87-.37-2.8,5.45-.62,10.9-.42,16.36-1.32,2.82-.47,5.62-1.11,8.37-1.91.88-.26,7.46-1.88,7.55-2.67.37-3.21.65-6.77-1.29-9.34ZM447.95,548.16c-.96.56-2.07.76-3.16.94-19.68,3.34-39.75,4.4-59.67,3.17-4.61-.28-9.2-.69-13.79-1.22-1.34-.15-3.68.02-4.67-1.1-1.17-1.32-.41-3.29.88-4.17.78-.53,1.71-.8,2.62-1.06,9.38-2.61,19.08-4.07,28.81-4.37,9.79-.3,19.58-.55,29.39.04,5.44.33,10.87.86,16.27,1.58,1.12.15,2.26.32,3.25.86s1.8,1.54,1.81,2.66c0,1.11-.78,2.1-1.73,2.65Z"/>
</svg>